<svg width="244" height="113" viewBox="0 0 244 113" fill="none" xmlns="http://www.w3.org/2000/svg">
<path d="M89.9228 85.4394C73.5349 85.4394 60.2031 72.3199 60.2031 56.1928C60.2031 40.0658 73.5349 26.9463 89.9228 26.9463C106.311 26.9463 119.643 40.0658 119.643 56.1928C119.643 72.3199 106.311 85.4394 89.9228 85.4394ZM89.9228 40.1783C80.9467 40.1783 73.6432 47.3656 73.6432 56.1928C73.6432 65.0201 80.9467 72.2133 89.9228 72.2133C98.8989 72.2133 106.202 65.026 106.202 56.1928C106.202 47.3597 98.8989 40.1783 89.9228 40.1783Z" fill="white"/>
<path d="M119.553 56.1867C119.553 54.4698 120.203 52.7529 121.508 51.4267L140.327 32.2507C143.756 28.7518 145.681 28.1065 150.253 28.1183L163.374 28.1302L136.193 56.1867H119.547H119.553Z" fill="#00C4BB"/>
<path d="M136.193 56.1865L163.892 84.7285L150.722 84.7404C146.132 84.7404 144.201 84.0951 140.76 80.5843L121.502 60.9465C120.197 59.6203 119.547 57.9034 119.547 56.1865H136.193Z" fill="white"/>
<path d="M60.7491 78.0205C60.7491 74.415 58.6976 71.6384 55.4368 71.1174C55.4128 71.1174 55.3947 71.1055 55.3706 71.1055C49.1259 70.3596 41.6539 67.281 41.6539 56.8079V41.19H48.789C61.2845 41.19 60.0692 28.1238 60.0692 28.1238H41.6479V21.4456C41.6479 17.6033 38.6037 15.1582 34.5368 15.1582C31.4024 15.1582 27.7266 15.768 27.7266 15.768V56.8138C27.7266 75.3859 40.2882 84.7342 58.9863 84.7342H60.1294C60.1294 84.7342 60.7491 81.1168 60.7491 78.0264V78.0205Z" fill="white"/>
<path d="M183.153 27.1352C169.52 28.6331 158.541 39.4377 157.025 52.8532C155.034 70.4663 169.051 85.4388 186.552 85.4388C194.957 85.4388 202.898 81.9695 208.529 75.8775C208.547 75.8597 208.547 75.836 208.565 75.8183L209.269 75.0605C209.269 75.0605 206.953 72.1832 204.625 70.111C201.983 67.7607 198.626 67.3462 196.076 69.1875C196.064 69.1934 196.052 69.1993 196.039 69.2111C193.302 71.1412 189.999 72.2068 186.558 72.2068C177.323 72.2068 169.857 64.5992 170.302 55.4167C170.706 47.0454 177.883 40.2547 186.396 40.1718C193.579 40.1008 199.715 44.6358 201.941 50.9528L201.989 51.1126H178.539C178.539 51.1126 177.299 64.1789 191.064 64.1789H206.189H209.51C213.029 64.1789 215.989 61.5088 216.212 58.0513C216.254 57.4356 216.272 56.8139 216.272 56.1923C216.272 38.9641 201.051 25.1637 183.153 27.1352Z" fill="white"/>
</svg>
